<svg width="105" height="105" viewBox="0 0 105 105" fill="none" xmlns="http://www.w3.org/2000/svg">
<rect width="105" height="105" rx="52.5" fill="#003890"/>
<path d="M52 54.125C58.8345 54.125 64.375 48.5845 64.375 41.75C64.375 34.9155 58.8345 29.375 52 29.375C45.1655 29.375 39.625 34.9155 39.625 41.75C39.625 48.5845 45.1655 54.125 52 54.125Z" stroke="white" stroke-width="2" stroke-linecap="round" stroke-linejoin="round"/>
<path d="M52 58.625C45.4681 58.8039 39.0673 60.4985 33.3025 63.575C31.8191 64.3277 30.5733 65.4769 29.7034 66.8948C28.8336 68.3127 28.3738 69.944 28.375 71.6075V73.25C28.375 74.1451 28.7306 75.0035 29.3635 75.6365C29.6769 75.9499 30.049 76.1985 30.4584 76.3681C30.8679 76.5377 31.3068 76.625 31.75 76.625H72.25C73.1451 76.625 74.0036 76.2694 74.6365 75.6365C75.2694 75.0035 75.625 74.1451 75.625 73.25V71.6075C75.6262 69.944 75.1664 68.3127 74.2966 66.8948C73.4267 65.4769 72.1809 64.3277 70.6975 63.575C64.9327 60.4985 58.5319 58.8039 52 58.625Z" stroke="white" stroke-width="2" stroke-linecap="round" stroke-linejoin="round"/>
</svg>
